<mxfile host="Electron" modified="2023-09-10T19:39:23.460Z" agent="Mozilla/5.0 (Windows NT 10.0; Win64; x64) AppleWebKit/537.36 (KHTML, like Gecko) draw.io/21.6.8 Chrome/114.0.5735.289 Electron/25.5.0 Safari/537.36" etag="XfvaKMe1IdMT0LBt0cNy" version="21.6.8" type="device">
  <diagram name="Página-1" id="otahGZ_e3GQJS43JEJs4">
    <mxGraphModel dx="1418" dy="828" grid="1" gridSize="10" guides="1" tooltips="1" connect="1" arrows="1" fold="1" page="1" pageScale="1" pageWidth="827" pageHeight="1169" math="0" shadow="0">
      <root>
        <mxCell id="0" />
        <mxCell id="1" parent="0" />
        <mxCell id="U5HvybDlQkZTxtPDZQyp-1" value="Sistema" style="verticalAlign=top;align=left;spacingTop=8;spacingLeft=2;spacingRight=12;shape=cube;size=10;direction=south;fontStyle=4;html=1;whiteSpace=wrap;" parent="1" vertex="1">
          <mxGeometry x="210" y="20" width="520" height="520" as="geometry" />
        </mxCell>
        <mxCell id="U5HvybDlQkZTxtPDZQyp-2" value="Usuario" style="shape=umlActor;verticalLabelPosition=bottom;verticalAlign=top;html=1;" parent="1" vertex="1">
          <mxGeometry x="100" y="210" width="50" height="90" as="geometry" />
        </mxCell>
        <mxCell id="U5HvybDlQkZTxtPDZQyp-3" value="Ingresa correo electrónico en la casilla" style="ellipse;whiteSpace=wrap;html=1;" parent="1" vertex="1">
          <mxGeometry x="410" y="110" width="120" height="80" as="geometry" />
        </mxCell>
        <mxCell id="U5HvybDlQkZTxtPDZQyp-4" value="Recuperar contraseña" style="rounded=0;whiteSpace=wrap;html=1;" parent="1" vertex="1">
          <mxGeometry x="380" y="40" width="180" height="20" as="geometry" />
        </mxCell>
        <mxCell id="U5HvybDlQkZTxtPDZQyp-12" value="Envía correo al usuario para el cambio de contraseña" style="ellipse;whiteSpace=wrap;html=1;" parent="1" vertex="1">
          <mxGeometry x="500" y="235" width="140" height="90" as="geometry" />
        </mxCell>
        <mxCell id="U5HvybDlQkZTxtPDZQyp-13" value="Presiona confirmar" style="ellipse;whiteSpace=wrap;html=1;" parent="1" vertex="1">
          <mxGeometry x="270" y="240" width="120" height="80" as="geometry" />
        </mxCell>
        <mxCell id="U5HvybDlQkZTxtPDZQyp-16" value="Ingresa su nueva contraseña" style="ellipse;whiteSpace=wrap;html=1;" parent="1" vertex="1">
          <mxGeometry x="294" y="380" width="120" height="80" as="geometry" />
        </mxCell>
        <mxCell id="U5HvybDlQkZTxtPDZQyp-18" value="Almacenar nueva contraseña" style="ellipse;whiteSpace=wrap;html=1;" parent="1" vertex="1">
          <mxGeometry x="510" y="375" width="140" height="90" as="geometry" />
        </mxCell>
        <mxCell id="3Zp2OVwVecD5wPHPm2bw-1" value="" style="endArrow=none;html=1;rounded=0;exitX=0.5;exitY=0.5;exitDx=0;exitDy=0;exitPerimeter=0;entryX=0;entryY=0.5;entryDx=0;entryDy=0;" parent="1" source="U5HvybDlQkZTxtPDZQyp-2" target="U5HvybDlQkZTxtPDZQyp-3" edge="1">
          <mxGeometry width="50" height="50" relative="1" as="geometry">
            <mxPoint x="730" y="210" as="sourcePoint" />
            <mxPoint x="780" y="160" as="targetPoint" />
          </mxGeometry>
        </mxCell>
        <mxCell id="3Zp2OVwVecD5wPHPm2bw-2" value="Include" style="endArrow=open;endSize=12;dashed=1;html=1;rounded=0;exitX=0;exitY=1;exitDx=0;exitDy=0;entryX=0.5;entryY=0;entryDx=0;entryDy=0;" parent="1" source="U5HvybDlQkZTxtPDZQyp-3" target="U5HvybDlQkZTxtPDZQyp-13" edge="1">
          <mxGeometry width="160" relative="1" as="geometry">
            <mxPoint x="410" y="192" as="sourcePoint" />
            <mxPoint x="483" y="318" as="targetPoint" />
          </mxGeometry>
        </mxCell>
        <mxCell id="3Zp2OVwVecD5wPHPm2bw-3" value="Include" style="endArrow=open;endSize=12;dashed=1;html=1;rounded=0;exitX=0.5;exitY=1;exitDx=0;exitDy=0;entryX=0.5;entryY=0;entryDx=0;entryDy=0;" parent="1" source="U5HvybDlQkZTxtPDZQyp-13" target="U5HvybDlQkZTxtPDZQyp-16" edge="1">
          <mxGeometry width="160" relative="1" as="geometry">
            <mxPoint x="413" y="320" as="sourcePoint" />
            <mxPoint x="413" y="370" as="targetPoint" />
          </mxGeometry>
        </mxCell>
        <mxCell id="3Zp2OVwVecD5wPHPm2bw-4" value="Extends" style="endArrow=block;endSize=16;endFill=0;html=1;rounded=0;entryX=1;entryY=0.5;entryDx=0;entryDy=0;exitX=0;exitY=0.5;exitDx=0;exitDy=0;" parent="1" source="U5HvybDlQkZTxtPDZQyp-12" target="U5HvybDlQkZTxtPDZQyp-13" edge="1">
          <mxGeometry width="160" relative="1" as="geometry">
            <mxPoint x="560" y="190" as="sourcePoint" />
            <mxPoint x="454" y="190" as="targetPoint" />
          </mxGeometry>
        </mxCell>
        <mxCell id="3Zp2OVwVecD5wPHPm2bw-5" value="Extends" style="endArrow=block;endSize=16;endFill=0;html=1;rounded=0;entryX=1;entryY=0.5;entryDx=0;entryDy=0;exitX=0;exitY=0.5;exitDx=0;exitDy=0;" parent="1" source="U5HvybDlQkZTxtPDZQyp-18" target="U5HvybDlQkZTxtPDZQyp-16" edge="1">
          <mxGeometry width="160" relative="1" as="geometry">
            <mxPoint x="520" y="400" as="sourcePoint" />
            <mxPoint x="410" y="400" as="targetPoint" />
          </mxGeometry>
        </mxCell>
      </root>
    </mxGraphModel>
  </diagram>
</mxfile>
